<?xml version="1.0" encoding="UTF-8"?>
<svg width="32px" height="32px" viewBox="0 0 32 32" version="1.1" xmlns="http://www.w3.org/2000/svg" xmlns:xlink="http://www.w3.org/1999/xlink">
    <title>filter</title>
    <g id="latest-version" stroke="none" stroke-width="1" fill="none" fill-rule="evenodd">
        <g id="High-fid-wire---about-assurity---career" transform="translate(-650.000000, -1541.000000)" fill="#505050" fill-rule="nonzero">
            <g id="Group-4" transform="translate(610.000000, 1515.000000)">
                <g id="filter" transform="translate(40.000000, 26.000000)">
                    <path d="M30.857053,0 L1.14287614,0 C0.511672617,0 0,0.511672617 0,1.14287614 L0,6.85712288 C0,7.18096122 0.137544242,7.48959872 0.378280148,7.70629452 L11.4285605,17.6513995 L11.4285605,30.857053 C11.4282926,31.4882565 11.9396974,32.00013 12.5709009,32.0004649 C12.7484227,32.0004649 12.9235338,31.9592819 13.0823056,31.8799295 L19.9394285,28.451368 C20.3268828,28.2577748 20.5716365,27.8616822 20.5714356,27.4284915 L20.5714356,17.6513995 L31.6217159,7.70857129 C31.8630545,7.49140675 32.0005987,7.18183176 32,6.85712288 L32,1.14287614 C32,0.511672617 31.4882565,0 30.857053,0 Z M29.7141768,6.34853061 L18.6639635,16.2913588 C18.4226249,16.5085233 18.2851476,16.8180983 18.2856853,17.1428072 L18.2856853,26.7222213 L13.7142458,29.0079066 L13.7142458,17.1428072 C13.7141788,16.8189689 13.5767015,16.5103314 13.3359656,16.2937025 L2.28568531,6.34853061 L2.28568531,2.28568531 L29.7141768,2.28568531 L29.7141768,6.34853061 Z" id="Shape"></path>
                </g>
            </g>
        </g>
    </g>
</svg>