<?xml version="1.0" encoding="UTF-8"?>
<svg width="40px" height="36px" viewBox="0 0 40 36" version="1.1" xmlns="http://www.w3.org/2000/svg" xmlns:xlink="http://www.w3.org/1999/xlink">
    <title>Group 8</title>
    <defs>
        <polygon id="path-1" points="0 0 40 0 40 35.6608041 0 35.6608041"></polygon>
    </defs>
    <g id="latest-version" stroke="none" stroke-width="1" fill="none" fill-rule="evenodd">
        <g id="Desktop-homepage" transform="translate(-229.000000, -12.000000)">
            <g id="Group-8" transform="translate(229.000000, 12.000000)">
                <g id="Group-3">
                    <mask id="mask-2" fill="white">
                        <use xlink:href="#path-1"></use>
                    </mask>
                    <g id="Clip-2"></g>
                    <path d="M19.2822069,10.2718851 L20.7177514,10.2718851 C21.5552503,10.2718851 22.2339226,10.9508705 22.2339226,11.7882911 L22.2339226,20.8832042 C22.2339226,21.7203117 21.5552503,22.3993753 20.7177514,22.3993753 L19.2822069,22.3993753 C18.4447864,22.3993753 17.7661141,21.7203117 17.7661141,20.8832042 L17.7661141,11.7882911 C17.7661141,10.9508705 18.4447864,10.2718851 19.2822069,10.2718851 M20.0000183,29.6506013 C18.5769983,29.6506013 17.4233337,28.4970932 17.4233337,27.0739949 C17.4233337,25.6510532 18.5769983,24.4973886 20.0000183,24.4973886 C21.4230383,24.4973886 22.5765464,25.6510532 22.5765464,27.0739949 C22.5765464,28.4970932 21.4230383,29.6506013 20.0000183,29.6506013 M39.4794786,29.897256 L23.3273129,1.92100657 C21.8484805,-0.640335523 18.1515561,-0.640335523 16.6726454,1.92100657 L0.520479805,29.897256 C-0.95835259,32.4588329 0.890109626,35.6608041 3.84785269,35.6608041 L36.1521057,35.6608041 C39.1098487,35.6608041 40.9583892,32.4588329 39.4794786,29.897256" id="Fill-1" fill="#F99A00" mask="url(#mask-2)"></path>
                </g>
                <path d="M20.0000183,24.4974277 C18.5769983,24.4974277 17.4233337,25.651014 17.4233337,27.0740341 C17.4233337,28.4971324 18.5769983,29.6506404 20.0000183,29.6506404 C21.4230383,29.6506404 22.5766247,28.4971324 22.5766247,27.0740341 C22.5766247,25.651014 21.4230383,24.4974277 20.0000183,24.4974277" id="Fill-4" fill="#FFFFFF"></path>
                <path d="M19.2822069,22.3993597 L20.7177514,22.3993597 C21.5552503,22.3993597 22.2339226,21.720296 22.2339226,20.8831886 L22.2339226,11.7882754 C22.2339226,10.9509331 21.5552503,10.2718695 20.7177514,10.2718695 L19.2822069,10.2718695 C18.4447864,10.2718695 17.7661141,10.9509331 17.7661141,11.7882754 L17.7661141,20.8831886 C17.7661141,21.720296 18.4447864,22.3993597 19.2822069,22.3993597" id="Fill-6" fill="#FFFFFF"></path>
            </g>
        </g>
    </g>
</svg>