<?xml version="1.0" standalone="no"?>
<!DOCTYPE svg PUBLIC "-//W3C//DTD SVG 20010904//EN"
 "http://www.w3.org/TR/2001/REC-SVG-20010904/DTD/svg10.dtd">
<svg version="1.0" xmlns="http://www.w3.org/2000/svg"
 width="400.000000pt" height="400.000000pt" viewBox="0 0 400.000000 400.000000"
 preserveAspectRatio="xMidYMid meet">
<metadata>
Created by potrace 1.14, written by Peter Selinger 2001-2017
</metadata>
<g transform="translate(0.000000,400.000000) scale(0.100000,-0.100000)"
fill="#000000" stroke="none">
<path d="M1855 3684 c-125 -28 -172 -41 -245 -72 -467 -195 -715 -713 -574
-1200 13 -45 34 -103 46 -130 30 -63 101 -180 132 -216 46 -52 127 -136 132
-136 2 0 18 -14 36 -30 17 -17 37 -30 45 -30 8 0 12 -4 9 -8 -2 -4 10 -14 27
-22 18 -7 34 -16 37 -20 12 -14 192 -91 233 -99 4 0 8 -1 10 -2 11 -3 47 -11
72 -15 137 -22 260 -22 370 1 17 3 39 8 50 10 11 2 32 8 48 14 15 6 27 9 27 6
0 -2 21 5 48 16 75 32 95 42 123 61 14 10 29 15 33 11 3 -3 6 -1 6 5 0 7 7 12
15 12 8 0 15 4 15 8 0 4 14 16 32 26 49 30 173 152 228 226 28 37 50 70 50 73
0 3 13 29 30 56 32 56 85 204 96 272 3 24 8 55 10 69 7 41 6 201 -1 255 -40
308 -238 594 -516 744 -157 85 -262 112 -454 116 -82 1 -159 1 -170 -1z m340
-264 c86 -22 196 -74 260 -123 53 -40 165 -159 165 -174 0 -7 4 -13 9 -13 10
0 73 -127 94 -190 26 -78 40 -194 33 -272 -4 -40 -7 -81 -7 -90 0 -10 -5 -20
-10 -23 -5 -4 -7 -10 -4 -15 7 -11 -42 -145 -73 -200 -61 -106 -158 -206 -267
-274 -78 -49 -204 -96 -262 -99 -7 0 -13 -3 -13 -7 0 -7 -217 -5 -255 3 -87
16 -285 99 -285 119 0 4 -6 8 -13 8 -14 0 -123 102 -167 156 -107 131 -169
330 -157 509 6 87 41 235 58 246 6 3 10 10 9 15 -2 15 32 84 42 84 4 0 8 6 8
14 0 36 158 192 248 245 72 43 187 85 274 100 77 14 220 5 313 -19z"/>
<path d="M1864 3196 c-112 -27 -192 -85 -230 -163 -20 -41 -19 -41 -29 -95
l-6 -36 113 1 113 2 3 27 c5 40 55 85 105 96 55 11 119 6 156 -12 52 -27 59
-60 56 -266 -1 -102 -3 -186 -5 -187 -3 -3 -7 -18 -9 -33 -2 -20 -79 -88 -112
-99 -49 -16 -116 -20 -153 -10 -67 18 -101 97 -70 160 19 38 88 69 155 70 85
1 91 6 93 72 0 31 -3 57 -8 57 -5 0 -3 6 3 14 20 23 -9 36 -70 30 -30 -3 -70
-7 -89 -8 -190 -16 -317 -123 -322 -273 -2 -63 9 -125 25 -135 6 -4 8 -8 4 -8
-8 0 26 -54 48 -75 31 -31 87 -63 137 -79 54 -16 177 -24 196 -12 5 3 19 7 33
10 46 8 95 34 132 70 21 20 40 36 42 36 2 0 12 -16 21 -36 11 -23 30 -42 53
-52 20 -10 37 -19 39 -22 4 -9 106 -1 134 11 16 6 28 17 29 23 1 6 2 43 3 83
l1 72 -27 -1 c-53 -2 -55 4 -55 239 0 120 -3 241 -7 268 -8 55 -43 139 -72
171 -30 33 -111 76 -168 89 -69 16 -200 17 -262 1z"/>
<path d="M2770 3680 c0 -5 8 -10 18 -10 16 0 18 -7 15 -50 -3 -30 0 -50 7 -50
5 0 10 22 10 50 0 37 4 50 14 50 8 0 18 5 21 10 4 6 -12 10 -39 10 -25 0 -46
-4 -46 -10z"/>
<path d="M2870 3630 c0 -37 4 -60 11 -60 7 0 10 14 7 35 -2 19 -1 35 3 35 4 0
13 -16 19 -35 6 -19 15 -35 20 -35 5 0 15 19 23 43 l15 42 1 -42 c1 -24 5 -43
10 -43 5 0 9 27 9 60 -1 71 -21 81 -39 20 -7 -22 -15 -40 -19 -40 -4 0 -13 18
-20 40 -20 62 -40 52 -40 -20z"/>
<path d="M3170 1548 c0 -4 -11 -8 -24 -8 -51 0 -56 -7 -56 -86 l0 -74 -47 3
-48 2 -3 -61 -3 -62 51 3 50 2 1 -166 c1 -189 8 -221 62 -265 35 -28 43 -30
122 -30 49 0 90 5 96 11 6 6 11 35 12 65 l0 53 -56 -3 c-46 -3 -59 0 -76 17
-19 19 -21 33 -21 169 l0 149 70 -2 c39 0 71 3 71 7 6 41 2 108 -6 109 -5 0
-38 0 -72 0 l-63 -1 0 90 0 90 -30 -2 c-16 -1 -30 -6 -30 -10z"/>
<path d="M193 1389 c-51 -9 -91 -30 -121 -62 -26 -27 -56 -114 -42 -119 6 -2
36 -1 69 0 54 3 60 6 71 32 14 35 43 48 101 46 73 -2 83 -19 85 -146 1 -58 0
-119 -3 -134 -19 -96 -188 -131 -211 -44 -15 58 19 88 103 93 17 1 34 3 38 4
4 0 7 25 5 53 l-3 53 -45 -3 c-39 -3 -74 -8 -115 -16 -5 -1 -28 -14 -51 -29
-93 -63 -100 -198 -13 -271 44 -38 74 -48 139 -48 63 0 119 20 155 56 14 14
25 20 25 13 1 -7 10 -23 21 -37 18 -21 29 -25 75 -24 29 0 56 3 59 6 6 6 9 49
6 91 -1 10 -9 17 -21 17 -24 0 -22 -12 -25 172 -2 152 -10 193 -49 236 -21 24
-68 53 -96 59 -34 8 -118 9 -157 2z"/>
<path d="M771 1387 c-122 -25 -194 -144 -145 -240 32 -62 87 -91 189 -101 130
-13 156 -31 130 -93 -15 -36 -35 -44 -104 -45 -58 0 -89 18 -111 63 -8 18 -18
31 -22 30 -5 0 -32 -1 -62 -1 -54 0 -55 -1 -50 -26 11 -60 56 -119 112 -148
75 -38 192 -38 270 0 81 40 110 96 103 201 -3 51 -95 123 -160 125 -17 1 -31
5 -31 10 0 5 -5 6 -10 3 -18 -11 -102 7 -122 27 -36 36 -5 84 61 94 53 8 97
-10 113 -47 12 -28 16 -29 75 -29 59 0 63 2 63 23 0 28 -38 90 -70 114 -55 42
-144 58 -229 40z"/>
<path d="M1333 1389 c-134 -25 -203 -143 -147 -251 29 -55 82 -81 194 -93 113
-12 144 -36 120 -94 -28 -68 -203 -51 -213 20 -4 23 -18 40 -28 33 -6 -3 -32
-6 -60 -6 -41 1 -49 -2 -49 -18 0 -71 82 -154 175 -176 39 -10 126 -6 172 7
96 27 165 134 138 216 -26 77 -78 116 -170 127 -54 6 -98 13 -132 21 -32 7
-41 61 -16 87 45 45 152 28 173 -27 9 -23 15 -25 75 -25 38 0 65 4 65 10 0 25
-33 88 -63 118 -45 47 -142 68 -234 51z"/>
<path d="M1767 1382 l-37 -3 4 -222 c4 -237 5 -247 18 -247 4 0 8 -6 8 -14 0
-20 50 -67 89 -83 68 -29 167 -13 217 35 25 23 34 19 34 -15 0 -22 4 -23 60
-23 50 0 60 3 61 18 4 104 1 311 -5 320 -4 7 -4 12 1 12 10 0 9 52 -1 68 -4 7
-4 12 1 12 10 0 9 52 -1 68 -4 7 -3 12 1 12 5 0 8 12 7 28 -1 25 -4 27 -51 32
-77 8 -99 0 -95 -35 3 -38 3 -45 -1 -75 -2 -14 1 -31 6 -37 5 -7 6 -13 1 -13
-5 0 -9 -16 -9 -35 0 -19 4 -35 8 -35 5 0 6 -4 2 -9 -3 -6 -8 -36 -10 -68 -6
-80 -8 -86 -31 -111 -28 -30 -62 -40 -103 -31 -29 6 -54 29 -56 49 0 3 -3 10
-6 15 -3 6 -5 94 -5 197 l1 186 -35 4 c-19 2 -52 2 -73 0z"/>
<path d="M2353 1377 c-3 -5 -7 -496 -4 -555 1 -10 19 -12 69 -10 l67 3 1 150
c0 83 4 166 8 185 13 65 62 103 136 105 l45 2 0 64 c0 63 0 64 -29 67 -43 5
-111 -17 -137 -44 -30 -32 -39 -30 -39 5 0 28 -2 29 -56 33 -31 1 -58 0 -61
-5z"/>
<path d="M2814 1382 l-50 -3 0 -282 1 -282 70 0 70 0 0 282 c1 320 10 291 -91
285z"/>
<path d="M3454 1380 l-31 -5 96 -242 c53 -134 98 -243 101 -243 3 0 19 41 36
92 l30 92 -55 152 -54 152 -46 4 c-25 1 -60 1 -77 -2z"/>
<path d="M3869 1380 c-8 -6 -68 -165 -109 -290 -58 -177 -134 -368 -152 -383
-18 -15 -33 -18 -80 -13 l-58 7 0 -60 0 -59 54 -6 c83 -11 123 1 170 48 38 37
53 72 174 395 72 195 131 356 129 357 -6 6 -118 9 -128 4z"/>
<path d="M1152 490 c-45 -19 -41 -85 6 -96 56 -12 62 -16 62 -34 0 -31 -49
-38 -71 -12 -17 22 -39 29 -39 14 0 -5 9 -18 21 -30 40 -44 129 -11 115 42 -5
20 -17 29 -54 39 -45 13 -60 33 -37 49 19 14 47 8 64 -14 11 -13 20 -17 24
-11 9 14 -22 50 -48 56 -11 3 -30 1 -43 -3z"/>
<path d="M1953 490 c-22 -9 -40 -35 -39 -57 1 -17 37 -42 60 -43 11 0 28 -7
38 -16 17 -16 17 -18 0 -30 -26 -20 -60 -17 -67 6 -7 23 -35 27 -35 6 0 -21
39 -46 70 -46 36 0 62 21 65 53 3 20 -3 29 -28 40 -18 8 -41 17 -52 19 -32 5
-31 36 1 44 21 5 31 2 44 -14 9 -11 22 -17 28 -13 7 4 5 13 -6 28 -21 26 -50
34 -79 23z"/>
<path d="M2124 479 c-16 -10 -25 -19 -20 -19 5 0 4 -6 -1 -12 -5 -7 -9 -33 -8
-57 2 -71 64 -105 115 -63 33 26 36 113 6 142 -32 29 -58 32 -92 9z m67 -19
c38 -21 18 -130 -24 -130 -27 0 -40 20 -43 66 -3 38 0 52 13 62 20 15 29 15
54 2z"/>
<path d="M2934 488 c-29 -14 -42 -45 -40 -96 3 -56 29 -83 74 -78 58 6 75 44
63 142 0 7 -16 19 -35 28 -39 18 -34 18 -62 4z m64 -30 c18 -18 15 -88 -5
-110 -20 -22 -31 -23 -55 -1 -25 22 -25 98 0 112 23 14 45 14 60 -1z"/>
<path d="M3330 487 c-17 -8 -26 -22 -28 -43 -3 -32 14 -46 71 -58 37 -8 37
-43 0 -52 -20 -5 -30 -2 -44 14 -18 23 -39 29 -39 12 0 -23 42 -51 73 -49 71
6 92 65 33 93 -19 9 -41 16 -49 16 -22 0 -31 18 -17 35 18 21 55 18 66 -5 6
-13 14 -17 22 -11 10 6 9 12 -5 28 -24 28 -53 35 -83 20z"/>
<path d="M560 480 c0 -5 11 -10 25 -10 27 0 27 1 26 -98 0 -46 3 -62 12 -59 8
2 12 28 12 80 l0 77 28 0 c15 0 27 5 27 10 0 6 -28 10 -65 10 -37 0 -65 -4
-65 -10z"/>
<path d="M740 402 c0 -74 3 -89 16 -89 12 0 15 8 12 34 -2 18 -2 33 2 34 3 0
13 2 22 4 11 2 22 -9 33 -31 29 -61 55 -60 29 1 -14 35 -14 39 0 47 19 11 21
59 4 76 -7 7 -36 12 -65 12 l-53 0 0 -88z m100 53 c18 -21 -4 -45 -41 -45 -26
0 -29 4 -29 30 0 26 3 30 29 30 16 0 34 -7 41 -15z"/>
<path d="M925 428 c2 -85 10 -105 45 -113 67 -15 90 15 90 116 0 47 -3 59 -16
59 -12 0 -15 -12 -13 -66 3 -79 -14 -105 -56 -86 -23 11 -25 16 -25 82 0 52
-3 70 -13 70 -10 0 -13 -16 -12 -62z"/>
<path d="M1280 481 c0 -5 12 -11 27 -13 27 -3 28 -4 29 -73 2 -90 2 -91 15
-78 12 12 14 96 4 113 -4 6 -2 10 4 10 6 0 8 7 4 16 -5 14 -1 16 20 12 19 -4
27 -1 27 8 0 10 -17 14 -65 14 -36 0 -65 -4 -65 -9z"/>
<path d="M1464 403 l1 -88 57 -2 c32 -1 60 3 64 8 6 10 -3 12 -56 13 -30 1
-35 5 -38 29 -3 24 0 27 30 28 18 1 36 1 41 0 4 0 7 6 7 15 0 9 -8 14 -17 13
-50 -5 -63 1 -63 26 0 23 4 25 44 25 25 0 48 5 51 10 4 6 -18 10 -58 10 l-65
0 2 -87z"/>
<path d="M1645 408 c1 -46 3 -86 4 -90 2 -15 92 -1 111 17 11 10 18 20 16 22
-2 3 0 18 4 34 5 17 5 31 -1 34 -5 4 -9 13 -9 22 0 26 -32 42 -81 43 l-45 0 1
-82z m79 56 c9 -3 16 -12 16 -20 0 -8 4 -14 9 -14 5 0 8 -13 7 -30 0 -16 -4
-30 -8 -30 -5 0 -8 -7 -8 -15 0 -8 -6 -16 -12 -16 -7 -1 -23 -3 -35 -4 -22 -2
-23 1 -23 66 0 61 2 69 19 69 11 0 26 -3 35 -6z"/>
<path d="M2298 467 c-3 -13 -1 -32 2 -43 4 -10 4 -26 -1 -35 -4 -8 -4 -21 1
-29 5 -9 5 -19 -2 -27 -13 -16 -16 -14 55 -18 41 -3 57 0 57 9 0 8 -11 12 -27
11 -51 -4 -58 7 -57 84 1 50 -3 71 -11 71 -7 0 -15 -10 -17 -23z"/>
<path d="M2450 416 c0 -66 3 -77 22 -90 28 -20 58 -20 83 -2 29 21 40 173 12
163 -8 -2 -12 -29 -13 -71 -1 -66 -10 -86 -39 -86 -29 0 -39 21 -40 86 -1 43
-5 69 -13 72 -9 3 -12 -17 -12 -72z"/>
<path d="M2620 480 c0 -10 13 -14 42 -11 15 2 17 -7 16 -56 -1 -92 1 -105 14
-101 9 3 13 29 13 79 0 73 1 74 28 77 55 7 25 22 -43 22 -40 0 -70 -4 -70 -10z"/>
<path d="M2810 400 c0 -53 4 -90 10 -90 11 0 12 9 12 100 0 79 0 80 -12 80 -6
0 -10 -37 -10 -90z"/>
<path d="M3099 488 c0 -2 -1 -38 -2 -81 -2 -53 2 -82 10 -89 10 -8 13 5 14 63
0 41 3 67 6 59 3 -8 9 -17 12 -20 3 -3 15 -22 26 -43 23 -43 52 -73 62 -64 3
4 7 45 7 92 1 61 -2 85 -11 85 -8 0 -13 -22 -15 -67 l-3 -67 -39 67 c-22 37
-45 67 -53 67 -7 0 -13 -1 -14 -2z"/>
</g>
</svg>
